<?xml version="1.0" encoding="UTF-8" standalone="no"?>
<svg xmlns="http://www.w3.org/2000/svg" height="123px" width="271px" version="1.1" xmlns:xlink="http://www.w3.org/1999/xlink" viewBox="0 0 271 123"><!-- Generator: Sketch 43.2 (39069) - http://www.bohemiancoding.com/sketch -->
 <title>Letters</title>
 <g id="Homepage" fill-rule="evenodd" fill="none">
  <g id="cta-background" fill="#A7E350" fill-rule="nonzero">
   <g id="letters" transform="translate(50 11)">
    <path id="Shape" transform="translate(13.311 47.332) rotate(8) translate(-13.311 -47.332)" d="m23.025 38.846h-19.429c-1.1814 0-2.1426 0.984-2.1426 2.195v12.583c0 1.211 0.9612 2.195 2.1429 2.195h19.429c1.182 0 2.143-0.984 2.143-2.195v-12.583c0-1.211-0.961-2.195-2.143-2.195zm1.286 2.195v12.583c0 0.218-0.057 0.42-0.149 0.601l-7.21-6.893 7.21-6.892c0.092 0.181 0.149 0.383 0.149 0.601zm-1.286-1.317c0.183 0 0.356 0.04 0.514 0.111l-9.268 8.859c-0.52 0.498-1.4 0.498-1.922 0l-9.267-8.859c0.1577-0.071 0.3311-0.111 0.5143-0.111h19.429zm-20.566 14.501c-0.0915-0.181-0.148-0.383-0.148-0.601v-12.583c0-0.218 0.0565-0.42 0.148-0.601l7.2102 6.892-7.2102 6.893zm1.1377 0.716c-0.1832 0-0.3566-0.041-0.5143-0.111l7.215-6.897 1.468 1.403c0.426 0.408 0.985 0.611 1.545 0.611s1.12-0.204 1.546-0.611l1.468-1.403 7.215 6.897c-0.158 0.07-0.331 0.111-0.514 0.111h-19.429z"/>
    <path id="Shape" transform="translate(60.181 89.642) rotate(-15) translate(-60.181 -89.642)" d="m69.896 81.155h-19.429c-1.182 0-2.143 0.985-2.143 2.195v12.584c0 1.21 0.961 2.194 2.143 2.194h19.429c1.181 0 2.143-0.984 2.143-2.194v-12.584c0-1.21-0.962-2.195-2.143-2.195zm1.285 2.195v12.584c0 0.217-0.056 0.42-0.148 0.6l-7.21-6.892 7.21-6.893c0.092 0.181 0.148 0.384 0.148 0.601zm-1.285-1.317c0.183 0 0.356 0.041 0.514 0.112l-9.268 8.859c-0.521 0.497-1.401 0.498-1.922 0l-9.267-8.859c0.158-0.071 0.331-0.112 0.514-0.112h19.429zm-20.567 14.501c-0.091-0.181-0.148-0.383-0.148-0.6v-12.584c0-0.217 0.057-0.42 0.148-0.6l7.211 6.892-7.211 6.892zm1.138 0.717c-0.183 0-0.356-0.041-0.514-0.112l7.215-6.897 1.467 1.404c0.426 0.407 0.986 0.611 1.546 0.611s1.12-0.204 1.546-0.611l1.468-1.404 7.215 6.897c-0.158 0.071-0.331 0.112-0.514 0.112h-19.429z"/>
    <path id="Shape" transform="translate(157.79 9.5065) rotate(5) translate(-157.79 -9.5065)" d="m167.51 1.0199h-19.43c-1.18 0-2.14 0.9844-2.14 2.1948v12.583c0 1.211 0.96 2.195 2.14 2.195h19.43c1.18 0 2.14-0.984 2.14-2.195v-12.583c0-1.2107-0.96-2.1951-2.14-2.1951zm1.28 2.1948v12.583c0 0.218-0.05 0.42-0.14 0.601l-7.21-6.8925 7.21-6.8926c0.09 0.1808 0.14 0.3834 0.14 0.6008zm-1.28-1.3169c0.18 0 0.35 0.0407 0.51 0.1115l-9.27 8.8587c-0.52 0.498-1.4 0.498-1.92 0l-9.26-8.8587c0.15-0.0708 0.33-0.1115 0.51-0.1115h19.43zm-20.57 14.501c-0.09-0.181-0.15-0.383-0.15-0.601v-12.583c0-0.2177 0.06-0.42 0.15-0.6008l7.21 6.8923-7.21 6.8925zm1.14 0.716c-0.18 0-0.36-0.041-0.51-0.111l7.21-6.897 1.47 1.403c0.42 0.408 0.98 0.611 1.54 0.611s1.12-0.203 1.55-0.611l1.47-1.403 7.21 6.897c-0.16 0.07-0.33 0.111-0.51 0.111h-19.43z"/>
   </g>
  </g>
 </g>
</svg>
