<?xml version="1.0" encoding="UTF-8"?>
<svg viewBox="0 0 26 27" version="1.1" xmlns="http://www.w3.org/2000/svg" xmlns:xlink="http://www.w3.org/1999/xlink">
  <title>Dribbble</title>
  <path id="Shape" d="m17.143 23.683c-0.469-2.69-1.25-5.469-2.344-8.337h-0.033l-0.034 0.017c-0.178 0.067-0.418 0.159-0.72 0.276-0.301 0.117-0.865 0.391-1.691 0.82-0.825 0.43-1.59 0.888-2.293 1.373-0.7032 0.486-1.4342 1.124-2.1932 1.917-0.7589 0.792-1.3337 1.618-1.7243 2.478l-0.2511-0.185c2.0535 1.675 4.3866 2.512 6.9976 2.512 1.473 0 2.902-0.291 4.286-0.871zm-3.097-10.162c-0.235-0.547-0.53-1.166-0.888-1.858-3.4705 1.038-7.2261 1.557-11.266 1.557-0.0114 0.078-0.017 0.195-0.017 0.351 0 1.384 0.2455 2.704 0.7366 3.96 0.4911 1.255 1.183 2.38 2.0759 3.373 0.558-0.993 1.2472-1.922 2.0675-2.787s1.6155-1.56 2.3856-2.085c0.7701-0.524 1.4984-0.976 2.1844-1.356 0.687-0.379 1.242-0.647 1.666-0.803l0.619-0.218c0.045-0.011 0.118-0.031 0.218-0.058 0.101-0.028 0.173-0.053 0.218-0.076zm-1.792-3.5489c-1.339-2.3772-2.7004-4.4866-4.0844-6.3281-1.5401 0.7254-2.8459 1.7634-3.9174 3.1138-1.0714 1.3505-1.7857 2.8683-2.1428 4.5532 3.3705 0 6.7522-0.446 10.145-1.3389zm11.451 5.3399c-2.343-0.669-4.626-0.831-6.847-0.485 0.971 2.667 1.686 5.285 2.143 7.852 1.239-0.837 2.271-1.895 3.097-3.173s1.362-2.676 1.607-4.194zm-13.476-12.405c-0.011 0-0.023 0.0055-0.034 0.0167 0.011-0.0112 0.023-0.0167 0.034-0.0167zm9.877 2.4274c-2.065-1.8303-4.481-2.7455-7.249-2.7455-0.848 0-1.713 0.106-2.595 0.3181 1.462 1.8973 2.835 4.029 4.119 6.3951 0.77-0.2902 1.495-0.6278 2.176-1.0129 0.681-0.385 1.219-0.7282 1.615-1.0296 0.397-0.3013 0.762-0.6194 1.097-0.9542s0.544-0.5608 0.628-0.678c0.083-0.1172 0.153-0.2149 0.209-0.293zm3.733 8.1192c-0.033-2.589-0.865-4.877-2.494-6.8636l-0.017 0.0167c-0.1 0.134-0.206 0.2707-0.318 0.4102s-0.354 0.3878-0.728 0.745c-0.374 0.3571-0.77 0.6947-1.189 1.0128-0.418 0.3181-0.976 0.6808-1.674 1.0882-0.697 0.4077-1.431 0.7677-2.201 1.0797 0.279 0.592 0.524 1.122 0.736 1.59 0.023 0.067 0.059 0.165 0.109 0.293 0.05 0.129 0.092 0.221 0.126 0.277 0.401-0.056 0.817-0.095 1.247-0.118 0.43-0.022 0.84-0.033 1.23-0.033 0.391 0 0.776 0.008 1.155 0.025 0.38 0.017 0.737 0.039 1.072 0.067s0.65 0.059 0.946 0.092c0.295 0.034 0.563 0.07 0.803 0.109s0.444 0.073 0.611 0.1c0.168 0.028 0.307 0.053 0.419 0.076l0.167 0.033zm1.875 0.117c0 2.333-0.574 4.484-1.724 6.454s-2.709 3.53-4.679 4.679c-1.97 1.15-4.121 1.725-6.454 1.725-2.332 0-4.4837-0.575-6.4535-1.725-1.9699-1.149-3.5296-2.709-4.6792-4.679-1.1495-1.97-1.7243-4.121-1.7243-6.454 0-2.332 0.57478-4.4834 1.7243-6.4533 1.1496-1.9698 2.7093-3.5295 4.6792-4.6791 1.9698-1.1495 4.1215-1.7243 6.4535-1.7243 2.333-0.00001 4.484 0.5748 6.454 1.7243 1.97 1.1496 3.529 2.7093 4.679 4.6791 1.15 1.9699 1.724 4.1213 1.724 6.4533z"/>
</svg>
