<?xml version="1.0" encoding="UTF-8"?>
<svg width="30px" height="30px" viewBox="0 0 30 30" version="1.1" xmlns="http://www.w3.org/2000/svg" xmlns:xlink="http://www.w3.org/1999/xlink">
  <title>Wireframe</title>
  <defs></defs>
  <g id="wireframe" fill="#000000">
    <path d="M5.643,4.7217 C5.643,4.21302713 5.23117287,3.8012 4.7225,3.8012 C4.21382713,3.8012 3.802,4.21302713 3.802,4.7217 C3.802,5.23037287 4.21382713,5.6422 4.7225,5.6422 C5.23117287,5.6422 5.643,5.23037287 5.643,4.7217 Z M6.564,4.7217 C6.564,5.73902713 5.73982713,6.5632 4.7225,6.5632 C3.70517287,6.5632 2.881,5.73902713 2.881,4.7217 C2.881,3.70437287 3.70517287,2.8802 4.7225,2.8802 C5.73982713,2.8802 6.564,3.70437287 6.564,4.7217 Z" id="circle-1" fill-rule="nonzero"></path>
    <path d="M9.7856,4.7217 C9.7856,4.21302713 9.37377287,3.8012 8.8651,3.8012 C8.35642713,3.8012 7.9446,4.21302713 7.9446,4.7217 C7.9446,5.23037287 8.35642713,5.6422 8.8651,5.6422 C9.37377287,5.6422 9.7856,5.23037287 9.7856,4.7217 Z M10.7066,4.7217 C10.7066,5.73902713 9.88242713,6.5632 8.8651,6.5632 C7.84777287,6.5632 7.0236,5.73902713 7.0236,4.7217 C7.0236,3.70437287 7.84777287,2.8802 8.8651,2.8802 C9.88242713,2.8802 10.7066,3.70437287 10.7066,4.7217 Z" id="circle-2" fill-rule="nonzero"></path>
    <path d="M13.9287,4.7217 C13.9287,4.21302713 13.5168729,3.8012 13.0082,3.8012 C12.4995271,3.8012 12.0877,4.21302713 12.0877,4.7217 C12.0877,5.23037287 12.4995271,5.6422 13.0082,5.6422 C13.5168729,5.6422 13.9287,5.23037287 13.9287,4.7217 Z M14.8497,4.7217 C14.8497,5.73902713 14.0255271,6.5632 13.0082,6.5632 C11.9908729,6.5632 11.1667,5.73902713 11.1667,4.7217 C11.1667,3.70437287 11.9908729,2.8802 13.0082,2.8802 C14.0255271,2.8802 14.8497,3.70437287 14.8497,4.7217 Z" id="circle-3" fill-rule="nonzero"></path>
    <path d="M12.0875,23.1337 L12.0875,19.9117 L18.5325,19.9117 L18.5325,23.1337 L12.0875,23.1337 Z M17.6115,22.2127 L17.6115,20.8327 L13.0085,20.8327 L13.0085,22.2127 L17.6115,22.2127 Z M20.373,26.8157 L20.373,25.8947 L25.896,25.8947 L25.896,26.8157 L20.373,26.8157 Z M20.373,25.8947 L25.896,25.8947 L25.896,26.8157 L20.373,26.8157 L20.373,25.8947 Z M20.373,24.9747 L20.373,24.0537 L25.896,24.0537 L25.896,24.9747 L20.373,24.9747 Z M20.373,24.0537 L25.896,24.0537 L25.896,24.9747 L20.373,24.9747 L20.373,24.0537 Z M12.548,26.8157 L12.548,25.8947 L18.071,25.8947 L18.071,26.8157 L12.548,26.8157 Z M12.548,25.8947 L18.071,25.8947 L18.071,26.8157 L12.548,26.8157 L12.548,25.8947 Z M12.548,24.9747 L12.548,24.0537 L18.071,24.0537 L18.071,24.9747 L12.548,24.9747 Z M12.548,24.0537 L18.071,24.0537 L18.071,24.9747 L12.548,24.9747 L12.548,24.0537 Z M4.722,26.8157 L4.722,25.8947 L10.246,25.8947 L10.246,26.8157 L4.722,26.8157 Z M4.722,25.8947 L10.246,25.8947 L10.246,26.8157 L4.722,26.8157 L4.722,25.8947 Z M4.722,24.9747 L4.722,24.0537 L10.246,24.0537 L10.246,24.9747 L4.722,24.9747 Z M4.2615,23.1337 L4.2615,19.9117 L10.7065,19.9117 L10.7065,23.1337 L4.2615,23.1337 Z M9.7855,22.2127 L9.7855,20.8327 L5.1825,20.8327 L5.1825,22.2127 L9.7855,22.2127 Z M19.9125,23.1337 L19.9125,19.9117 L26.3575,19.9117 L26.3575,23.1337 L19.9125,23.1337 Z M25.4365,22.2127 L25.4365,20.8327 L20.8335,20.8327 L20.8335,22.2127 L25.4365,22.2127 Z M4.722,24.0537 L10.246,24.0537 L10.246,24.9747 L4.722,24.9747 L4.722,24.0537 Z" id="3-up" fill-rule="nonzero"></path>
    <path d="M13.9282,11.5684 L13.9282,14.4454 C13.9282,14.7104 14.2162,14.8754 14.4452,14.7424 L16.9292,13.2934 C17.1562,13.1604 17.1552,12.8304 16.9272,12.6994 L14.4422,11.2704 C14.3872,11.2404 14.3292,11.2254 14.2722,11.2254 C14.0932,11.2254 13.9282,11.3694 13.9282,11.5684" id="play" fill-rule="nonzero"></path>
    <path d="M2.5,28 L28,28 L28,2.5 L2.5,2.5 L2.5,28 Z M0.658458515,0.658458515 L29.8415415,0.658458515 L29.8415415,29.8415415 L0.658458515,29.8415415 L0.658458515,0.658458515 Z" id="Rectangle" fill-rule="nonzero"></path>
    <rect id="Rectangle-2" x="1.75" y="7" width="27" height="1"></rect>
    <rect id="Rectangle-2-Copy" x="1.75" y="18" width="27" height="1"></rect>
  </g>
</svg>
