<?xml version="1.0" standalone="no"?>
<!DOCTYPE svg PUBLIC "-//W3C//DTD SVG 20010904//EN"
 "http://www.w3.org/TR/2001/REC-SVG-20010904/DTD/svg10.dtd">
<svg version="1.0" xmlns="http://www.w3.org/2000/svg"
 width="700.000000pt" height="700.000000pt" viewBox="0 0 700.000000 700.000000"
 preserveAspectRatio="xMidYMid meet">
<metadata>
Created by potrace 1.11, written by Peter Selinger 2001-2013
</metadata>
<g transform="translate(0.000000,700.000000) scale(0.100000,-0.100000)"
fill="#000000" stroke="none">
<path d="M3147 5860 c-26 -16 -49 -30 -51 -30 -6 0 -190 -110 -199 -119 -5 -5
-2 -41 8 -87 9 -44 19 -90 21 -104 3 -14 30 -149 60 -300 31 -151 58 -284 60
-294 2 -11 13 -65 25 -120 28 -136 27 -129 33 -167 3 -19 14 -74 25 -124 11
-49 22 -103 25 -119 3 -16 10 -52 16 -80 6 -28 12 -62 15 -76 8 -41 104 -513
135 -665 16 -77 31 -151 34 -165 2 -14 32 -160 65 -325 34 -165 64 -313 67
-330 3 -16 9 -46 14 -65 5 -19 11 -48 14 -65 3 -16 8 -43 11 -60 19 -98 59
-293 91 -445 19 -96 37 -182 39 -191 2 -9 6 -34 9 -55 4 -22 11 -55 16 -74 5
-19 11 -48 14 -65 3 -16 10 -50 15 -75 5 -25 30 -153 56 -285 27 -132 49 -242
51 -244 3 -3 238 129 290 163 17 12 30 28 28 36 -2 8 -14 69 -27 135 -14 66
-52 255 -86 420 -33 165 -83 410 -110 545 -49 241 -56 273 -66 328 -3 15 -8
34 -10 42 -2 8 -7 31 -10 50 -3 19 -21 109 -40 200 -65 319 -97 475 -101 495
-2 11 -29 144 -60 295 -30 151 -58 286 -60 300 -3 14 -14 70 -25 125 -12 55
-23 109 -25 120 -11 55 -47 231 -49 240 -1 6 -5 28 -10 50 -4 22 -10 49 -12
60 -2 11 -6 31 -9 45 -3 14 -20 101 -39 193 -19 93 -37 181 -40 195 -7 40 -13
70 -30 147 -15 72 -22 107 -31 160 -3 17 -19 93 -35 170 -17 77 -35 164 -41
193 -6 28 -14 52 -18 52 -3 0 -27 -13 -53 -30z"/>
<path d="M6697 5594 c-1 -1 -51 -5 -112 -8 -60 -4 -130 -9 -155 -11 -25 -2
-100 -6 -168 -9 -67 -4 -146 -9 -175 -11 -28 -2 -97 -7 -152 -10 -55 -3 -127
-7 -160 -10 -64 -5 -199 -13 -330 -20 -44 -3 -107 -7 -140 -9 -33 -3 -103 -8
-155 -11 -52 -3 -131 -8 -175 -11 -44 -2 -114 -7 -155 -9 -146 -9 -266 -16
-315 -20 -27 -2 -102 -7 -165 -10 -63 -4 -137 -9 -165 -11 -27 -1 -97 -6 -155
-9 -58 -3 -123 -8 -145 -10 -22 -2 -68 -4 -102 -6 -38 -1 -63 -7 -63 -13 1 -6
43 -83 94 -171 92 -158 94 -160 127 -159 33 1 202 12 284 19 22 2 87 6 145 10
58 3 123 8 145 10 22 3 85 7 140 10 55 3 116 8 135 10 19 2 82 6 140 10 58 4
121 8 140 10 19 2 87 6 150 10 63 4 131 8 150 10 19 2 80 6 135 10 55 3 116 8
135 10 19 2 80 7 135 10 55 3 120 8 145 10 25 2 88 6 140 10 52 3 120 8 150
10 30 3 93 7 140 10 47 3 104 7 128 9 23 2 42 2 42 0 0 -2 -33 -52 -72 -111
-40 -58 -111 -163 -158 -232 -47 -69 -135 -198 -195 -286 -165 -244 -363 -534
-472 -695 -54 -80 -204 -301 -334 -493 l-237 -348 94 -162 c52 -89 97 -163
102 -164 5 -2 1629 2427 1695 2537 15 24 12 30 -67 165 l-82 140 -43 0 c-23 0
-43 -1 -44 -1z"/>
<path d="M1634 4078 c-78 -117 -460 -692 -849 -1278 -389 -585 -709 -1069
-711 -1075 -2 -5 34 -73 79 -150 78 -131 85 -140 112 -139 29 1 188 11 305 19
89 6 219 15 310 20 47 3 121 7 165 10 44 3 109 7 145 10 36 2 101 7 145 10 44
3 109 7 145 10 36 2 110 7 165 10 55 3 125 8 155 10 30 2 105 7 165 10 61 4
130 8 155 10 25 3 93 7 153 10 59 4 129 8 155 10 26 2 94 6 152 10 58 3 128 8
155 10 28 2 93 7 145 10 195 12 227 14 325 20 55 4 102 9 103 10 2 2 -39 77
-91 167 l-95 163 -38 -1 c-60 -1 -285 -15 -303 -19 -9 -1 -63 -6 -121 -9 -58
-4 -125 -9 -150 -11 -50 -5 -146 -12 -260 -20 -41 -3 -100 -7 -130 -10 -30 -2
-98 -7 -150 -11 -52 -3 -111 -7 -130 -9 -19 -2 -78 -6 -130 -9 -52 -4 -115 -8
-140 -11 -25 -2 -85 -7 -135 -10 -49 -3 -112 -8 -140 -10 -27 -2 -86 -7 -130
-10 -44 -3 -105 -8 -135 -10 -30 -3 -93 -7 -140 -10 -47 -3 -105 -7 -130 -10
-25 -2 -88 -7 -140 -10 -52 -4 -98 -9 -103 -12 -21 -13 0 28 66 124 41 60 170
250 287 423 117 173 254 376 305 450 50 74 149 221 220 325 71 105 165 244
210 310 259 382 356 526 361 539 5 13 -134 269 -178 329 -12 15 -29 -6 -154
-195z"/>
</g>
</svg>
