<?xml version="1.0" encoding="UTF-8"?>
<svg width="16px" height="10px" viewBox="0 0 16 10" version="1.1" xmlns="http://www.w3.org/2000/svg" xmlns:xlink="http://www.w3.org/1999/xlink">
  <title>laptop</title>
  <g id="laptop" fill-rule="nonzero" fill="#000000">
    <path d="M2.25,0 C2.112,0 2,0.112 2,0.25 L2,8 L0,8 L0,9.75 C0,9.888 0.112,10 0.25,10 L15.75,10 C15.888,10 16,9.888 16,9.75 L16,8 L14,8 L14,0.25 C14,0.112 13.888,0 13.75,0 L2.25,0 Z M3,1 L13,1 L13,7 L3,7 L3,1 Z M6,8 L10,8 L10,8.5 C10,8.776 9.776,9 9.5,9 L6.5,9 C6.431,9 6.372,8.994 6.312,8.969 C6.133,8.893 5.999,8.707 5.999,8.5 L5.999,8 L6,8 Z" id="Shape"></path>
  </g>
</svg>
