<?xml version="1.0" encoding="UTF-8" standalone="no"?>
<svg xmlns="http://www.w3.org/2000/svg" height="25px" width="208px" version="1.1" xmlns:xlink="http://www.w3.org/1999/xlink" viewBox="0 0 208 25"><!-- Generator: Sketch 43.2 (39069) - http://www.bohemiancoding.com/sketch -->
 <title>Logo</title>
 <desc>Created with Sketch.</desc>
 <g id="Logo" fill-rule="evenodd" fill="none">
  <g id="code-for-designers-logo-copy">
   <path id="ode-for-designers" fill="#000" d="m18.998 14.18c-2.124 0-3.132-1.386-3.132-3.744v-1.962c0-2.358 1.008-3.744 3.132-3.744s3.132 1.386 3.132 3.744v1.962c0 2.358-1.008 3.744-3.132 3.744zm0-8.586c-1.782 0-2.052 1.494-2.052 3.852 0 2.376 0.27 3.87 2.052 3.87s2.052-1.494 2.052-3.87c0-2.358-0.27-3.852-2.052-3.852zm12.812 7.722c1.026 0 1.998-0.828 1.998-3.042v-1.62c0-0.54 0-3.06-2.034-3.06-1.944 0-1.944 1.764-1.944 3.888 0 3.384 0.81 3.834 1.98 3.834zm2.106 0.684l-0.054-1.152-0.036 0.018c-0.558 0.864-1.242 1.314-2.304 1.314-2.628 0-2.772-2.61-2.772-4.734 0-1.746 0-4.716 2.79-4.716 0.828 0 1.638 0.378 2.196 1.08l0.036 0.018v-4.824h1.08v11.196c0 0.9 0.054 1.494 0.108 1.8h-1.044zm14.198-4.32h-5.184v0.702c0 1.26 0.342 2.934 2.052 2.934 1.35 0 2.016-0.864 1.998-2.088h1.134c-0.126 2.196-1.314 2.952-3.132 2.952-1.566 0-3.132-0.63-3.132-3.384v-2.232c0-2.628 1.098-3.834 3.132-3.834 3.132 0 3.132 2.25 3.132 4.95zm-5.184-0.864h4.104c0-2.016-0.324-3.222-2.052-3.222s-2.052 1.206-2.052 3.222zm21.844 5.184h1.08v-8.226h1.836v-0.864h-1.836v-1.548c0-0.522 0-1.458 1.044-1.458h0.81v-0.9c-0.27-0.036-0.45-0.072-0.612-0.072-2.196 0-2.322 1.584-2.322 2.448v1.53h-1.458v0.864h1.458v8.226zm12.2 0.18c-2.124 0-3.132-1.386-3.132-3.744v-1.962c0-2.358 1.008-3.744 3.132-3.744s3.132 1.386 3.132 3.744v1.962c0 2.358-1.008 3.744-3.132 3.744zm0-8.586c-1.782 0-2.052 1.494-2.052 3.852 0 2.376 0.27 3.87 2.052 3.87s2.052-1.494 2.052-3.87c0-2.358-0.27-3.852-2.052-3.852zm11.246-0.684h-1.08v9.09h1.08v-5.85c0-1.53 1.008-2.448 2.538-2.322v-1.098c-1.098 0-2.052 0.54-2.502 1.404h-0.036v-1.224zm20.57 8.406c1.02 0 1.99-0.828 1.99-3.042v-1.62c0-0.54 0-3.06-2.03-3.06-1.94 0-1.94 1.764-1.94 3.888 0 3.384 0.81 3.834 1.98 3.834zm2.1 0.684l-0.05-1.152-0.04 0.018c-0.56 0.864-1.24 1.314-2.3 1.314-2.63 0-2.77-2.61-2.77-4.734 0-1.746 0-4.716 2.79-4.716 0.82 0 1.63 0.378 2.19 1.08l0.04 0.018v-4.824h1.08v11.196c0 0.9 0.05 1.494 0.11 1.8h-1.05zm14.2-4.32h-5.18v0.702c0 1.26 0.34 2.934 2.05 2.934 1.35 0 2.01-0.864 2-2.088h1.13c-0.13 2.196-1.31 2.952-3.13 2.952-1.57 0-3.13-0.63-3.13-3.384v-2.232c0-2.628 1.09-3.834 3.13-3.834 3.13 0 3.13 2.25 3.13 4.95zm-5.18-0.864h4.1c0-2.016-0.32-3.222-2.05-3.222s-2.05 1.206-2.05 3.222zm17.24 2.79c0-3.042-4.09-2.43-4.09-4.698 0-0.81 0.61-1.314 1.39-1.314 1.22 0 1.53 0.612 1.58 1.764h1.06c0-1.386-0.57-2.628-2.37-2.628-1.59 0-2.74 0.594-2.74 2.268 0 3.006 4.09 2.394 4.09 4.77 0 1.008-0.51 1.602-1.55 1.602-1.39 0-1.68-0.828-1.68-2.07h-1.09c-0.02 1.926 0.75 2.88 2.71 2.88 1.7 0 2.69-0.864 2.69-2.574zm8.34 2.394v-9.09h-1.08v9.09h1.08zm0.13-11.628v-1.368h-1.33v1.368h1.33zm10.08 3.222c-1.88 0-1.91 2.304-1.91 3.654 0 1.89 0 3.78 1.96 3.78 0.9 0 1.48-0.594 1.64-1.026 0.27-0.702 0.34-1.116 0.34-3.78 0-1.908-1.03-2.628-2.03-2.628zm2.1 0.45v-1.152h1.06c-0.03 0.864-0.05 1.314-0.05 1.782v7.65c0 1.998-0.61 3.186-3.2 3.186-2.27 0-2.72-1.602-2.65-2.52h1.08c-0.07 1.044 0.7 1.656 1.71 1.656 2.11 0 1.98-1.134 1.98-3.852h-0.04c-0.46 0.774-1.33 1.098-2.19 1.098-2.61 0-2.79-2.25-2.79-4.266 0-2.106 0.02-2.124 0.27-3.096 0.09-0.378 0.72-1.8 2.55-1.8 0.92 0 1.84 0.468 2.24 1.278l0.03 0.036zm9.32 2.25c0-2.034 0.99-2.7 1.96-2.7 1.26 0 1.68 0.99 1.68 2.052v6.354h1.08v-6.408c0-1.188-0.24-2.862-2.49-2.862-0.97 0-1.67 0.54-2.19 1.296h-0.04v-1.116h-1.08v9.09h1.08v-5.706zm17.94 1.386h-5.18v0.702c0 1.26 0.34 2.934 2.05 2.934 1.35 0 2.02-0.864 2-2.088h1.13c-0.12 2.196-1.31 2.952-3.13 2.952-1.56 0-3.13-0.63-3.13-3.384v-2.232c0-2.628 1.1-3.834 3.13-3.834 3.13 0 3.13 2.25 3.13 4.95zm-5.18-0.864h4.1c0-2.016-0.32-3.222-2.05-3.222s-2.05 1.206-2.05 3.222zm13.3-3.906h-1.08v9.09h1.08v-5.85c0-1.53 1.01-2.448 2.54-2.322v-1.098c-1.1 0-2.06 0.54-2.51 1.404h-0.03v-1.224zm13.94 6.696c0-3.042-4.08-2.43-4.08-4.698 0-0.81 0.61-1.314 1.38-1.314 1.23 0 1.53 0.612 1.59 1.764h1.06c0-1.386-0.58-2.628-2.38-2.628-1.58 0-2.73 0.594-2.73 2.268 0 3.006 4.08 2.394 4.08 4.77 0 1.008-0.5 1.602-1.54 1.602-1.39 0-1.68-0.828-1.68-2.07h-1.1c-0.01 1.926 0.76 2.88 2.72 2.88 1.69 0 2.68-0.864 2.68-2.574z"/>
   <path id="c" fill="#1762FF" d="m9.228 7.52c0.09-1.908-0.972-2.79-2.538-2.79-1.242 0-2.268 0.468-2.736 1.764-0.234 0.684-0.27 2.106-0.27 3.006 0 2.25 0 4.68 3.078 4.68 0.846 0 2.574-0.414 2.484-2.862h-1.08c-0.054 1.098-0.234 1.998-1.656 1.998-1.674 0-1.674-2.178-1.674-3.816 0-1.206 0.108-2.448 0.252-2.862 0.234-0.666 0.792-1.044 1.458-1.044 1.242 0 1.656 0.792 1.602 1.926h1.08z"/>
   <rect id="cursor" height="4" width="13" y="21" x="0" fill="#1762FF"/>
  </g>
 </g>
</svg>
