<?xml version="1.0" encoding="UTF-8" standalone="no"?>
<svg xmlns="http://www.w3.org/2000/svg" height="123px" width="271px" version="1.1" xmlns:xlink="http://www.w3.org/1999/xlink" viewBox="0 0 271 123"><!-- Generator: Sketch 43.2 (39069) - http://www.bohemiancoding.com/sketch -->
 <title>Paper Airplanes</title>
 <g id="Homepage" fill-rule="evenodd" fill="none">
  <g id="cta-background" fill="#E3B850" fill-rule="nonzero">
   <g id="paper-planes" transform="translate(10 10)">
    <g id="Group" transform="translate(14 12) rotate(-15) translate(-12 -9)">
     <path id="Shape" d="m23.878 4.6192c-0.017-0.0586-0.048-0.1094-0.086-0.1521-0.006-0.0062-0.012-0.0118-0.018-0.0178-0.002-0.0019-0.004-0.004-0.006-0.0059 0-0.0003 0-0.0008-0.001-0.0011-0.009-0.0084-0.017-0.017-0.027-0.0246-0.009-0.0076-0.02-0.014-0.03-0.0208-0.003-0.0024-0.007-0.0046-0.011-0.007-0.004-0.0025-0.008-0.0052-0.012-0.0076-0.002-0.0013-0.004-0.003-0.006-0.0043-0.011-0.0059-0.022-0.0114-0.034-0.0165l-0.006-0.0024c-0.005-0.0019-0.009-0.0035-0.014-0.0054-0.021-0.0079-0.042-0.0141-0.064-0.0187-0.002-0.0005-0.005-0.0016-0.007-0.0021l-22.84-4.2084c-0.01345-0.0024-0.02655-0.00213-0.03964-0.00321-0.00463-0.00054-0.00954-0.00108-0.01418-0.00135-0.20236-0.01108-0.38536 0.12669-0.42327 0.32875-0.00327 0.01701-0.00327 0.03376-0.00436 0.05078v0.00081c-0.00164 0.02539-0.00055 0.05024 0.00272 0.07456 0.00028 0.00189 0.00028 0.00378 0.00055 0.00567 0.00354 0.0235 0.009 0.04619 0.01636 0.06861 0.00109 0.00351 0.00218 0.0073 0.00355 0.01081 0.00763 0.02107 0.01718 0.04106 0.02836 0.06051 0.00164 0.00324 0.00273 0.00648 0.00464 0.00972l3.8144 6.3999-1.7106 5.7839c-0.0136 0.021-0.0256 0.042-0.0351 0.064-0.0017 0.004-0.0025 0.008-0.0041 0.012-0.0175 0.044-0.0284 0.091-0.0292 0.14 0 0.005 0.0005 0.008 0.0005 0.012 0.0003 0.02 0.0006 0.041 0.0041 0.062 0.0028 0.016 0.0115 0.028 0.0156 0.043 0.006 0.022 0.0128 0.042 0.0226 0.063 0.0139 0.028 0.0311 0.053 0.051 0.077 0.0087 0.011 0.0123 0.024 0.0224 0.034 0.0043 0.005 0.0106 0.006 0.0152 0.011 0.027 0.025 0.0579 0.043 0.0909 0.06 0.0131 0.007 0.0242 0.017 0.0379 0.022 0.0463 0.018 0.096 0.029 0.1478 0.029h0.0003 0.0002c0.0221 0 0.0445-0.002 0.0666-0.006l4.5575-0.749 2.4 4.606c0.0033 0.009 0.0098 0.017 0.0139 0.027l0.0104 0.019c0.0052 0.01 0.0131 0.017 0.0188 0.027 0.0147 0.023 0.0243 0.049 0.0445 0.07 0.0804 0.084 0.1887 0.127 0.2967 0.127 0.015 0 0.029-0.007 0.043-0.009 0.026-0.002 0.052-0.006 0.077-0.014 0.017-0.005 0.033-0.01 0.049-0.018 0.007-0.003 0.015-0.005 0.022-0.008 0.031-0.016 0.058-0.036 0.083-0.058 0.002-0.002 0.005-0.002 0.007-0.005l13.301-12.492c0.136-0.0983 0.203-0.2722 0.153-0.4408zm-13.618 11.971l-3.4342-6.5906 15.136-4.401-11.702 10.992zm-5.4881-9.9345l-3.3202-5.5709 19.37 3.5689-16.05 2.002zm0.0876 0.8058l13.644-1.7019-12.379 3.5992h-0.0012l-0.0041 0.0014c-0.0128 0.0038-0.024 0.0097-0.0362 0.0146-0.0011 0.0005-0.0025 0.0011-0.0036 0.0016-0.0046 0.0016-0.0087 0.0032-0.0131 0.0051-0.0063 0.003-0.0131 0.0046-0.0196 0.0076-0.0006 0.0003-0.0011 0.0008-0.0017 0.0011-0.0169 0.0089-0.0324 0.02-0.0477 0.0308-0.0068 0.0048-0.0144 0.0086-0.021 0.0138-0.0054 0.0043-0.0095 0.0094-0.0144 0.014-0.0079 0.0068-0.018 0.0092-0.0259 0.0168l-2.3411 2.2706 1.2641-4.2747zm-0.9118 5.0667l2.1758-2.11 0.8411 1.614-3.0169 0.496z"/>
    </g>
    <g id="Group-2" transform="translate(140 50) rotate(-5) translate(-12 -9)">
     <path id="Shape" d="m23.878 4.6192c-0.017-0.0586-0.048-0.1094-0.086-0.1521-0.006-0.0062-0.012-0.0118-0.018-0.0178-0.002-0.0019-0.004-0.004-0.006-0.0059 0-0.0003 0-0.0008-0.001-0.0011-0.009-0.0084-0.017-0.017-0.027-0.0246-0.009-0.0076-0.02-0.014-0.03-0.0208-0.003-0.0024-0.007-0.0046-0.011-0.007-0.004-0.0025-0.008-0.0052-0.012-0.0076-0.002-0.0013-0.004-0.003-0.006-0.0043-0.011-0.0059-0.022-0.0114-0.034-0.0165l-0.006-0.0024c-0.005-0.0019-0.009-0.0035-0.014-0.0054-0.021-0.0079-0.042-0.0141-0.064-0.0187-0.002-0.0005-0.005-0.0016-0.007-0.0021l-22.84-4.2084c-0.01345-0.0024-0.02655-0.00213-0.03964-0.00321-0.00463-0.00054-0.00954-0.00108-0.01418-0.00135-0.20236-0.01108-0.38536 0.12669-0.42327 0.32875-0.00327 0.01701-0.00327 0.03376-0.00436 0.05078v0.00081c-0.00164 0.02539-0.00055 0.05024 0.00272 0.07456 0.00028 0.00189 0.00028 0.00378 0.00055 0.00567 0.00354 0.0235 0.009 0.04619 0.01636 0.06861 0.00109 0.00351 0.00218 0.0073 0.00355 0.01081 0.00763 0.02107 0.01718 0.04106 0.02836 0.06051 0.00164 0.00324 0.00273 0.00648 0.00464 0.00972l3.8144 6.3999-1.7106 5.7839c-0.0136 0.021-0.0256 0.042-0.0351 0.064-0.0017 0.004-0.0025 0.008-0.0041 0.012-0.0175 0.044-0.0284 0.091-0.0292 0.14 0 0.005 0.0005 0.008 0.0005 0.012 0.0003 0.02 0.0006 0.041 0.0041 0.062 0.0028 0.016 0.0115 0.028 0.0156 0.043 0.006 0.022 0.0128 0.042 0.0226 0.063 0.0139 0.028 0.0311 0.053 0.051 0.077 0.0087 0.011 0.0123 0.024 0.0224 0.034 0.0043 0.005 0.0106 0.006 0.0152 0.011 0.027 0.025 0.0579 0.043 0.0909 0.06 0.0131 0.007 0.0242 0.017 0.0379 0.022 0.0463 0.018 0.096 0.029 0.1478 0.029h0.0003 0.0002c0.0221 0 0.0445-0.002 0.0666-0.006l4.5575-0.749 2.4 4.606c0.0033 0.009 0.0098 0.017 0.0139 0.027l0.0104 0.019c0.0052 0.01 0.0131 0.017 0.0188 0.027 0.0147 0.023 0.0243 0.049 0.0445 0.07 0.0804 0.084 0.1887 0.127 0.2967 0.127 0.015 0 0.029-0.007 0.043-0.009 0.026-0.002 0.052-0.006 0.077-0.014 0.017-0.005 0.033-0.01 0.049-0.018 0.007-0.003 0.015-0.005 0.022-0.008 0.031-0.016 0.058-0.036 0.083-0.058 0.002-0.002 0.005-0.002 0.007-0.005l13.301-12.492c0.136-0.0983 0.203-0.2722 0.153-0.4408zm-13.618 11.971l-3.4342-6.5906 15.136-4.401-11.702 10.992zm-5.4881-9.9345l-3.3202-5.5709 19.37 3.5689-16.05 2.002zm0.0876 0.8058l13.644-1.7019-12.379 3.5992h-0.0012l-0.0041 0.0014c-0.0128 0.0038-0.024 0.0097-0.0362 0.0146-0.0011 0.0005-0.0025 0.0011-0.0036 0.0016-0.0046 0.0016-0.0087 0.0032-0.0131 0.0051-0.0063 0.003-0.0131 0.0046-0.0196 0.0076-0.0006 0.0003-0.0011 0.0008-0.0017 0.0011-0.0169 0.0089-0.0324 0.02-0.0477 0.0308-0.0068 0.0048-0.0144 0.0086-0.021 0.0138-0.0054 0.0043-0.0095 0.0094-0.0144 0.014-0.0079 0.0068-0.018 0.0092-0.0259 0.0168l-2.3411 2.2706 1.2641-4.2747zm-0.9118 5.0667l2.1758-2.11 0.8411 1.614-3.0169 0.496z"/>
    </g>
    <g id="Group-3" transform="translate(197 87) rotate(15) translate(-12 -9)">
     <path id="Shape" d="m23.878 4.6192c-0.017-0.0586-0.048-0.1094-0.086-0.1521-0.006-0.0062-0.012-0.0118-0.018-0.0178-0.002-0.0019-0.004-0.004-0.006-0.0059 0-0.0003 0-0.0008-0.001-0.0011-0.009-0.0084-0.017-0.017-0.027-0.0246-0.009-0.0076-0.02-0.014-0.03-0.0208-0.003-0.0024-0.007-0.0046-0.011-0.007-0.004-0.0025-0.008-0.0052-0.012-0.0076-0.002-0.0013-0.004-0.003-0.006-0.0043-0.011-0.0059-0.022-0.0114-0.034-0.0165l-0.006-0.0024c-0.005-0.0019-0.009-0.0035-0.014-0.0054-0.021-0.0079-0.042-0.0141-0.064-0.0187-0.002-0.0005-0.005-0.0016-0.007-0.0021l-22.84-4.2084c-0.01345-0.0024-0.02655-0.00213-0.03964-0.00321-0.00463-0.00054-0.00954-0.00108-0.01418-0.00135-0.20236-0.01108-0.38536 0.12669-0.42327 0.32875-0.00327 0.01701-0.00327 0.03376-0.00436 0.05078v0.00081c-0.00164 0.02539-0.00055 0.05024 0.00272 0.07456 0.00028 0.00189 0.00028 0.00378 0.00055 0.00567 0.00354 0.0235 0.009 0.04619 0.01636 0.06861 0.00109 0.00351 0.00218 0.0073 0.00355 0.01081 0.00763 0.02107 0.01718 0.04106 0.02836 0.06051 0.00164 0.00324 0.00273 0.00648 0.00464 0.00972l3.8144 6.3999-1.7106 5.7839c-0.0136 0.021-0.0256 0.042-0.0351 0.064-0.0017 0.004-0.0025 0.008-0.0041 0.012-0.0175 0.044-0.0284 0.091-0.0292 0.14 0 0.005 0.0005 0.008 0.0005 0.012 0.0003 0.02 0.0006 0.041 0.0041 0.062 0.0028 0.016 0.0115 0.028 0.0156 0.043 0.006 0.022 0.0128 0.042 0.0226 0.063 0.0139 0.028 0.0311 0.053 0.051 0.077 0.0087 0.011 0.0123 0.024 0.0224 0.034 0.0043 0.005 0.0106 0.006 0.0152 0.011 0.027 0.025 0.0579 0.043 0.0909 0.06 0.0131 0.007 0.0242 0.017 0.0379 0.022 0.0463 0.018 0.096 0.029 0.1478 0.029h0.0003 0.0002c0.0221 0 0.0445-0.002 0.0666-0.006l4.5575-0.749 2.4 4.606c0.0033 0.009 0.0098 0.017 0.0139 0.027l0.0104 0.019c0.0052 0.01 0.0131 0.017 0.0188 0.027 0.0147 0.023 0.0243 0.049 0.0445 0.07 0.0804 0.084 0.1887 0.127 0.2967 0.127 0.015 0 0.029-0.007 0.043-0.009 0.026-0.002 0.052-0.006 0.077-0.014 0.017-0.005 0.033-0.01 0.049-0.018 0.007-0.003 0.015-0.005 0.022-0.008 0.031-0.016 0.058-0.036 0.083-0.058 0.002-0.002 0.005-0.002 0.007-0.005l13.301-12.492c0.136-0.0983 0.203-0.2722 0.153-0.4408zm-13.618 11.971l-3.4342-6.5906 15.136-4.401-11.702 10.992zm-5.4881-9.9345l-3.3202-5.5709 19.37 3.5689-16.05 2.002zm0.0876 0.8058l13.644-1.7019-12.379 3.5992h-0.0012l-0.0041 0.0014c-0.0128 0.0038-0.024 0.0097-0.0362 0.0146-0.0011 0.0005-0.0025 0.0011-0.0036 0.0016-0.0046 0.0016-0.0087 0.0032-0.0131 0.0051-0.0063 0.003-0.0131 0.0046-0.0196 0.0076-0.0006 0.0003-0.0011 0.0008-0.0017 0.0011-0.0169 0.0089-0.0324 0.02-0.0477 0.0308-0.0068 0.0048-0.0144 0.0086-0.021 0.0138-0.0054 0.0043-0.0095 0.0094-0.0144 0.014-0.0079 0.0068-0.018 0.0092-0.0259 0.0168l-2.3411 2.2706 1.2641-4.2747zm-0.9118 5.0667l2.1758-2.11 0.8411 1.614-3.0169 0.496z"/>
    </g>
   </g>
  </g>
 </g>
</svg>
