<?xml version="1.0" encoding="UTF-8" standalone="no"?>
<svg xmlns="http://www.w3.org/2000/svg" height="123px" width="271px" version="1.1" xmlns:xlink="http://www.w3.org/1999/xlink" viewBox="0 0 271 123"><!-- Generator: Sketch 43.2 (39069) - http://www.bohemiancoding.com/sketch -->
 <title>Code Brackets</title>
 <g id="Homepage" fill-rule="evenodd" fill="none">
  <g id="cta-background" fill="#50D3E3">
   <g id="brackets" transform="translate(12 13)">
    <path transform="translate(13.124 84.363) rotate(15) translate(-13.124 -84.363)" d="m2 84.822l7.938 3.924v-1.116l-6.786-3.276 6.786-3.294v-1.134l-7.938 3.942v0.954zm8.46 5.904h1.062l4.266-12.726h-1.062l-4.266 12.726zm5.85-1.98l7.938-3.924v-0.954l-7.938-3.942v1.134l6.768 3.294-6.768 3.276v1.116z"/>
    <path transform="translate(99.124 9.363) rotate(-15) translate(-99.124 -9.363)" d="m88 9.822l7.938 3.924v-1.116l-6.786-3.276 6.786-3.294v-1.134l-7.938 3.942v0.954zm8.46 5.904h1.062l4.268-12.726h-1.06l-4.27 12.726zm5.85-1.98l7.94-3.924v-0.954l-7.94-3.942v1.134l6.77 3.294-6.77 3.276v1.116z"/>
    <path d="m222 46.822l7.94 3.924v-1.116l-6.79-3.276 6.79-3.294v-1.134l-7.94 3.942v0.954zm8.46 5.904h1.06l4.27-12.726h-1.06l-4.27 12.726zm5.85-1.98l7.94-3.924v-0.954l-7.94-3.942v1.134l6.77 3.294-6.77 3.276v1.116z"/>
   </g>
  </g>
 </g>
</svg>
