<?xml version="1.0" encoding="UTF-8"?>
<svg viewBox="0 0 32 22" version="1.1" xmlns="http://www.w3.org/2000/svg" xmlns:xlink="http://www.w3.org/1999/xlink">
  <title>Envelope</title>
  <g id="email" fill-rule="nonzero" fill="#000000">
    <path d="M16.4,10.8 L31.5,3.2 C31.8,3.1 32,2.8 32,2.5 L32,0.5 C32,0.2 31.8,8.8817842e-16 31.5,8.8817842e-16 L0.5,8.8817842e-16 C0.2,8.8817842e-16 0,0.2 0,0.5 L0,2.5 C0,2.8 0.2,3.1 0.4,3.2 L15.5,10.8 C15.8,10.9 16.2,10.9 16.4,10.8 Z" id="Shape"></path>
    <path d="M15.6,13.8 L0.4,6.2 C0.2,6.1 0,6.2 0,6.5 L0,21.5 C0,21.8 0.2,22 0.5,22 L31.5,22 C31.8,22 32,21.8 32,21.5 L32,6.5 C32,6.2 31.8,6.1 31.6,6.2 L16.5,13.8 C16.2,13.9 15.8,13.9 15.6,13.8 Z" id="Shape"></path>
  </g>
</svg>
