<?xml version="1.0" encoding="UTF-8"?>
<svg viewBox="0 0 32 26" version="1.1" xmlns="http://www.w3.org/2000/svg" xmlns:xlink="http://www.w3.org/1999/xlink">
  <title>Twitter</title>
  <path d="m10.064 26c-3.708 0-7.159-1.087-10.064-2.949 0.514 0.061 1.036 0.092 1.566 0.092 3.076 0 5.907-1.049 8.153-2.81-2.873-0.053-5.297-1.951-6.133-4.558 0.401 0.077 0.812 0.118 1.235 0.118 0.599 0 1.179-0.08 1.73-0.23-3.003-0.603-5.266-3.256-5.266-6.436 0-0.028 0-0.055 0.001-0.083 0.885 0.492 1.898 0.787 2.974 0.821-1.762-1.177-2.921-3.186-2.921-5.463 0-1.203 0.324-2.33 0.889-3.3 3.238 3.971 8.076 6.584 13.532 6.858-0.112-0.48-0.17-0.981-0.17-1.496 0-3.625 2.94-6.564 6.565-6.564 1.888 0 3.595 0.797 4.792 2.073 1.495-0.294 2.901-0.841 4.169-1.593-0.49 1.533-1.531 2.819-2.887 3.631 1.328-0.159 2.593-0.511 3.771-1.034-0.88 1.316-1.993 2.472-3.276 3.398 0.013 0.281 0.019 0.565 0.019 0.849 0 8.674-6.603 18.675-18.679 18.675"/>
</svg>
